<?xml version="1.0" encoding="UTF-8" standalone="no"?>
<svg width="86px" height="80px" viewBox="0 0 86 80" version="1.1" xmlns="http://www.w3.org/2000/svg" xmlns:xlink="http://www.w3.org/1999/xlink" xmlns:sketch="http://www.bohemiancoding.com/sketch/ns">
    <!-- Generator: Sketch 3.3.1 (12005) - http://www.bohemiancoding.com/sketch -->
    <title>Path 15</title>
    <desc>Created with Sketch.</desc>
    <defs></defs>
    <g id="Welcome" stroke="none" stroke-width="1" fill="none" fill-rule="evenodd" sketch:type="MSPage">
        <g id="Desktop" sketch:type="MSArtboardGroup" transform="translate(-271.000000, -300.000000)" stroke="#FFFFFF" opacity="0.307136194">
            <g id="header" sketch:type="MSLayerGroup" transform="translate(1.000000, 0.000000)">
                <g id="A-featherlight-messa-+-Path-15-+-Mesh-it-all-up." transform="translate(238.000000, 298.000000)" sketch:type="MSShapeGroup">
                    <path d="M67.984089,43.3715853 C67.984089,6.96067916 101.483756,12.0401591 94.6777181,40.7033833 C92.0387619,51.8171899 72.4172104,52.0599302 66.0529033,50.8533678 C64.7439133,50.605206 63.3875079,49.1516917 63.2352718,47.6503235 C62.4098085,39.5095237 61.6505377,31.0592838 63.2352718,23.0656068 C67.5234617,1.43522358 105.60904,15.6945285 109.224928,32.1519162 C109.680487,34.2253514 110.446558,36.9415117 109.224928,38.5640141 C99.4461844,51.551612 57.0951413,49.6989114 71.2132846,23.0656068 C87.3495776,-7.3748553 119.415664,28.3973866 110.158862,52.9927369 C101.349264,76.399866 56.8138594,62.8807408 57.6052851,38.5640141 C58.4231386,13.4352904 122.561329,15.9942902 112.506888,52.9927369 C111.576173,56.4175927 107.187881,57.4045581 104.05927,57.8003081 C94.2665673,59.0390246 84.2734894,59.22694 74.5005214,57.8003081 C62.3688699,56.0293618 65.7041534,35.5784864 66.0529033,28.4080202 C66.9802293,9.34174922 114.602414,10.0317667 108.755323,45.5109544 C106.728462,57.8096145 57.4985378,64.6389314 54.7929301,48.1851658 C47.7360876,5.26998974 114.517165,-0.552324852 116.728059,38.0291719 C117.014902,43.0347576 117.553856,48.6665462 115.32452,52.9927369 C103.526133,75.8883738 53.1764221,77.3174502 49.6272723,44.9761121 C48.3457446,33.2982961 43.2041679,17.3835919 51.036088,9.70656852 C68.945876,-7.84900638 117.190369,10.9813267 107.816112,43.9064275 C97.8575738,78.8836945 20.999194,89.5688499 34.610457,35.3549604 C35.7389936,30.8599802 44.4916216,29.0875714 47.2845224,28.9428624 C55.2525353,28.5300147 63.2658089,28.1718744 71.2132846,28.9428624 C89.125273,30.6805122 101.84808,33.6768982 105.468086,55.6669484 C106.447877,61.6187786 110.648616,72.4707945 105.468086,73.8335577 L102.650454,80.2516652 C89.8858135,83.6094651 81.3635116,74.9517533 71.2132846,68.4911443" id="Path-15"></path>
                </g>
            </g>
        </g>
    </g>
</svg>