<?xml version="1.0" encoding="UTF-8" standalone="no"?>
<svg width="86px" height="80px" viewBox="0 0 86 80" version="1.1" xmlns="http://www.w3.org/2000/svg" xmlns:xlink="http://www.w3.org/1999/xlink" xmlns:sketch="http://www.bohemiancoding.com/sketch/ns">
    <!-- Generator: Sketch 3.3.1 (12005) - http://www.bohemiancoding.com/sketch -->
    <title>Path 15</title>
    <desc>Created with Sketch.</desc>
    <defs></defs>
    <g id="Welcome" stroke="none" stroke-width="1" fill="none" fill-rule="evenodd" sketch:type="MSPage">
        <g id="Desktop" sketch:type="MSArtboardGroup" transform="translate(-269.000000, -314.000000)" stroke="#FFFFFF" opacity="0.307136194">
            <g id="header" sketch:type="MSLayerGroup" transform="translate(1.000000, 0.000000)">
                <g id="A-featherlight-messa-+-Path-15-+-Mesh-it-all-up." transform="translate(238.000000, 261.000000)" sketch:type="MSShapeGroup">
                    <path d="M65.984089,94.3715853 C65.984089,57.9606792 99.4837562,63.0401591 92.6777181,91.7033833 C90.0387619,102.81719 70.4172104,103.05993 64.0529033,101.853368 C62.7439133,101.605206 61.3875079,100.151692 61.2352718,98.6503235 C60.4098085,90.5095237 59.6505377,82.0592838 61.2352718,74.0656068 C65.5234617,52.4352236 103.60904,66.6945285 107.224928,83.1519162 C107.680487,85.2253514 108.446558,87.9415117 107.224928,89.5640141 C97.4461844,102.551612 55.0951413,100.698911 69.2132846,74.0656068 C85.3495776,43.6251447 117.415664,79.3973866 108.158862,103.992737 C99.3492642,127.399866 54.8138594,113.880741 55.6052851,89.5640141 C56.4231386,64.4352904 120.561329,66.9942902 110.506888,103.992737 C109.576173,107.417593 105.187881,108.404558 102.05927,108.800308 C92.2665673,110.039025 82.2734894,110.22694 72.5005214,108.800308 C60.3688699,107.029362 63.7041534,86.5784864 64.0529033,79.4080202 C64.9802293,60.3417492 112.602414,61.0317667 106.755323,96.5109544 C104.728462,108.809615 55.4985378,115.638931 52.7929301,99.1851658 C45.7360876,56.2699897 112.517165,50.4476751 114.728059,89.0291719 C115.014902,94.0347576 115.553856,99.6665462 113.32452,103.992737 C101.526133,126.888374 51.1764221,128.31745 47.6272723,95.9761121 C46.3457446,84.2982961 41.2041679,68.3835919 49.036088,60.7065685 C66.945876,43.1509936 115.190369,61.9813267 105.816112,94.9064275 C95.8575738,129.883695 18.999194,140.56885 32.610457,86.3549604 C33.7389936,81.8599802 42.4916216,80.0875714 45.2845224,79.9428624 C53.2525353,79.5300147 61.2658089,79.1718744 69.2132846,79.9428624 C87.125273,81.6805122 102.196103,82.7716686 105.816109,104.761719 C106.7959,110.713549 108.472168,120.054199 104.575684,127.145508 L100.650454,131.251665 C87.8858135,134.609465 79.3635116,125.951753 69.2132846,119.491144" id="Path-15"></path>
                </g>
            </g>
        </g>
    </g>
</svg>